<svg width="10" height="4" viewBox="0 0 10 4" fill="none" xmlns="http://www.w3.org/2000/svg">
<path d="M4.99216 3.99865C4.82555 3.99891 4.6641 3.95243 4.53581 3.86729L0.257587 1.01162C0.111972 0.914678 0.0204009 0.775372 0.00301722 0.624349C-0.0143664 0.473327 0.0438616 0.322958 0.164892 0.206323C0.285922 0.089688 0.45984 0.0163408 0.648386 0.00241676C0.836931 -0.0115073 1.02466 0.0351323 1.17027 0.132076L4.99216 2.69075L8.81404 0.223457C8.88697 0.176016 8.9709 0.140587 9.06098 0.119209C9.15107 0.0978302 9.24554 0.090923 9.33896 0.0988842C9.43239 0.106845 9.52294 0.129517 9.60539 0.165598C9.68784 0.201679 9.76058 0.250457 9.81942 0.309127C9.88472 0.367852 9.93418 0.436746 9.96469 0.511492C9.9952 0.586238 10.0061 0.665226 9.99674 0.743508C9.98737 0.821789 9.95792 0.897677 9.91023 0.966417C9.86254 1.03516 9.79764 1.09527 9.7196 1.14298L5.44137 3.90156C5.3094 3.97324 5.15124 4.00743 4.99216 3.99865Z" fill="#EE2817"/>
</svg>
