<svg width="13" height="7" viewBox="0 0 13 7" fill="none" xmlns="http://www.w3.org/2000/svg">
<path d="M6.48985 6.88184C6.27326 6.88229 6.06336 6.8023 5.89659 6.65576L0.334865 1.74104C0.145565 1.5742 0.0265213 1.33445 0.00392241 1.07453C-0.0186765 0.814614 0.0570204 0.555824 0.21436 0.35509C0.3717 0.154357 0.597795 0.0281232 0.842907 0.00415934C1.08802 -0.0198046 1.33207 0.060464 1.52137 0.227307L6.48985 4.6309L11.4583 0.384579C11.5531 0.30293 11.6622 0.241956 11.7794 0.205163C11.8965 0.16837 12.0193 0.156482 12.1407 0.170184C12.2622 0.183885 12.3799 0.222905 12.4871 0.285001C12.5943 0.347098 12.6888 0.431046 12.7653 0.53202C12.8502 0.633088 12.9145 0.751657 12.9542 0.880298C12.9938 1.00894 13.008 1.14488 12.9958 1.27961C12.9837 1.41433 12.9454 1.54494 12.8834 1.66324C12.8214 1.78155 12.737 1.885 12.6356 1.96712L7.07383 6.71474C6.90226 6.83811 6.69665 6.89695 6.48985 6.88184Z" fill="#EE2817"/>
</svg>
