<svg width="25" height="22" viewBox="0 0 25 22" fill="none" xmlns="http://www.w3.org/2000/svg">
<g style="mix-blend-mode:lighten" clip-path="url(#clip0_168_281)">
<path d="M25 11C25 4.92492 19.4035 0 12.5 0C5.5965 0 0 4.92492 0 11C0 16.1586 4.036 20.4873 9.4805 21.6762V14.3616H6.903V11H9.4805V9.55152C9.4805 5.80756 11.406 4.0722 15.583 4.0722C16.375 4.0722 17.7415 4.20904 18.3005 4.34544V7.39244C18.0055 7.36516 17.493 7.35152 16.8565 7.35152C14.807 7.35152 14.015 8.03484 14.015 9.81112V11H18.098L17.3965 14.3616H14.015V21.9195C20.2045 21.2617 25.0005 16.6241 25.0005 11H25Z" fill="#0866FF"/>
<path d="M17.3961 14.3615L18.0976 10.9999H14.0146V9.81106C14.0146 8.03478 14.8066 7.35146 16.8561 7.35146C17.4926 7.35146 18.0051 7.3651 18.3001 7.39238V4.34538C17.7411 4.20854 16.3746 4.07214 15.5826 4.07214C11.4056 4.07214 9.48009 5.8075 9.48009 9.55146V10.9999H6.90259V14.3615H9.48009V21.6761C10.4471 21.8873 11.4586 21.9999 12.4996 21.9999C13.0121 21.9999 13.5176 21.9722 14.0141 21.9194V14.3615H17.3956H17.3961Z" fill="white"/>
</g>
<defs>
<clipPath id="clip0_168_281">
<rect width="25" height="22" fill="white"/>
</clipPath>
</defs>
</svg>
